<svg xmlns="http://www.w3.org/2000/svg" version="1.1" xmlns:xlink="http://www.w3.org/1999/xlink" xmlns:svgjs="http://svgjs.dev/svgjs" width="128" height="128" viewBox="0 0 128 128"><g transform="matrix(0.8046875,0,0,0.8046875,12.760752631578946,22.446776624386743)"><svg viewBox="0 0 95 77" data-background-color="#050217" preserveAspectRatio="xMidYMid meet" height="103" width="128" xmlns="http://www.w3.org/2000/svg" xmlns:xlink="http://www.w3.org/1999/xlink"><g id="tight-bounds" transform="matrix(1,0,0,1,-0.24049999999999727,0.1038806287156433)"><svg viewBox="0 0 95.481 76.79223874256871" height="76.79223874256871" width="95.481"><g><svg viewBox="0 0 95.481 76.79223874256871" height="76.79223874256871" width="95.481"><g><svg viewBox="0 0 95.481 76.79223874256871" height="76.79223874256871" width="95.481"><g id="textblocktransform"><svg viewBox="0 0 95.481 76.79223874256871" height="76.79223874256871" width="95.481" id="textblock"><g><svg viewBox="0 0 95.481 76.79223874256871" height="76.79223874256871" width="95.481"><g><svg viewBox="0 0 95.481 76.79223874256871" height="76.79223874256871" width="95.481"><g><svg xmlns="http://www.w3.org/2000/svg" xmlns:xlink="http://www.w3.org/1999/xlink" version="1.1" x="0" y="0" viewBox="0 9.786 100.00034525290005 80.42699999999999" enable-background="new 0 0 100 100" xml:space="preserve" id="icon-0" width="95.481" height="76.79223874256871" class="icon-icon-0" data-fill-palette-color="accent"><path d="M49.942 52.994L90.595 51.529C88.068 47.352 87.436 43.698 82.606 43.068 75.377 42.128 68.148 41.185 60.918 40.242L18.843 34.762C20.101 36.792 39.724 53.361 49.942 52.994" fill="#1c1a32" data-fill-palette-color="accent"></path><path d="M0 9.786C4.391 17.043 26.615 32.858 32.953 33.672 50.283 35.903 67.61 38.132 84.939 40.36 81.546 34.753 80.759 31.01 74.627 29.401L47.91 22.378C31.94 18.182 15.97 13.984 0 9.786" fill="#1c1a32" data-fill-palette-color="accent"></path><path d="M63.108 66.207L94.349 59.547C92.321 56.201 92.315 54.188 88.522 54.358 82.364 54.631 76.208 54.907 70.051 55.18 58.708 55.686 47.365 56.194 36.023 56.698 37.298 58.064 54.94 67.947 63.108 66.207" fill="#1c1a32" data-fill-palette-color="accent"></path><path d="M87.682 90.213C93.407 86.494 94.944 82.492 98.201 76.406 101.852 69.582 99.458 68.562 95.38 61.81 94.963 61.122 89.538 62.042 88.927 62.714 88.182 63.532 88.679 68.169 88.633 69.21z" fill="#1c1a32" data-fill-palette-color="accent"></path><path d="M86.35 63.447C82.555 64.256 77.746 63.638 76.778 67.676L72.658 84.887C81.904 82.678 86.028 71.582 86.35 63.447" fill="#1c1a32" data-fill-palette-color="accent"></path><path d="M74.666 66.121C65.518 68.074 65.71 70.732 61.787 79.301 68.007 78.711 73.811 71.941 74.666 66.121" fill="#1c1a32" data-fill-palette-color="accent"></path></svg></g></svg></g></svg></g></svg></g></svg></g><g></g></svg></g><defs></defs></svg><rect width="95.481" height="76.79223874256871" fill="none" stroke="none" visibility="hidden"></rect></g></svg></g></svg>