<?xml version="1.0" standalone="no"?>
<!DOCTYPE svg PUBLIC "-//W3C//DTD SVG 20010904//EN"
 "http://www.w3.org/TR/2001/REC-SVG-20010904/DTD/svg10.dtd">
<svg version="1.0" xmlns="http://www.w3.org/2000/svg"
 width="702.000000pt" height="590.000000pt" viewBox="0 0 702.000000 590.000000"
 preserveAspectRatio="xMidYMid meet">
<metadata>
Created by potrace 1.16, written by Peter Selinger 2001-2019
</metadata>
<g transform="translate(0.000000,590.000000) scale(0.100000,-0.100000)"
fill="#000000" stroke="none">
<path d="M1920 5728 c-563 -341 -1059 -681 -1350 -926 -134 -113 -330 -318
-358 -374 -40 -83 -116 -496 -137 -743 -6 -78 -6 -81 20 -105 25 -23 34 -25
123 -25 74 1 128 9 228 33 400 98 1026 343 1654 649 l235 114 80 -2 c73 -2 87
1 159 34 101 47 376 195 399 215 11 10 17 30 17 58 0 50 17 66 122 113 70 31
544 293 717 396 61 36 111 71 111 78 0 23 -137 163 -184 188 -36 19 -46 29
-46 49 0 18 -18 43 -62 86 -55 52 -73 64 -138 83 l-75 22 -265 -90 c-146 -50
-274 -96 -285 -101 -47 -23 -321 -54 -586 -66 l-146 -7 -32 84 c-18 46 -48
130 -68 187 -19 56 -38 102 -42 102 -3 0 -44 -24 -91 -52z m700 -422 l0 -54
-292 -145 c-161 -79 -303 -148 -315 -151 -20 -6 -23 -14 -23 -55 l0 -48 -57
-26 c-32 -14 -150 -67 -263 -117 -343 -154 -620 -260 -680 -260 l-51 0 3 57 3
57 220 149 c253 171 497 325 810 514 l220 132 213 1 212 0 0 -54z"/>
<path d="M6365 5353 c-11 -2 -47 -17 -80 -33 -121 -57 -241 -108 -271 -114
-19 -4 -34 -15 -37 -25 -3 -12 -27 -25 -73 -39 -90 -27 -159 -38 -394 -62
-227 -23 -330 -46 -437 -96 -61 -29 -73 -38 -59 -46 18 -10 186 2 461 33 93
10 189 19 212 19 l43 0 0 -52 0 -53 -153 -106 c-164 -114 -260 -176 -462 -300
l-130 -79 -5 -61 -5 -61 -200 -122 c-820 -498 -1897 -1061 -2715 -1419 -339
-148 -416 -177 -470 -177 l-50 0 0 53 0 53 138 96 c313 218 895 590 1210 772
45 26 82 53 82 59 0 7 -34 75 -76 152 -42 77 -114 215 -160 308 -46 92 -86
167 -88 167 -20 0 -679 -412 -981 -613 -597 -398 -913 -643 -1195 -926 -191
-192 -245 -269 -235 -336 7 -48 85 -281 121 -362 14 -32 29 -67 34 -78 28 -67
73 -166 91 -200 12 -22 32 -60 44 -85 32 -63 58 -87 108 -101 147 -40 636 92
1257 338 678 270 1784 809 2500 1218 36 21 85 49 110 63 266 148 714 415 991
590 130 82 150 92 193 92 76 0 199 46 311 115 22 14 56 34 75 44 45 25 161
136 189 181 12 21 21 52 21 77 0 32 4 43 19 48 11 3 35 20 52 36 18 17 40 36
48 42 40 31 41 41 41 522 0 395 -2 465 -14 465 -8 0 -20 2 -28 4 -7 2 -22 2
-33 -1z"/>
<path d="M3553 2283 c-18 -9 -33 -20 -33 -25 0 -4 -5 -8 -11 -8 -23 0 -435
-258 -774 -483 -406 -271 -629 -433 -895 -650 -139 -114 -410 -393 -453 -467
-21 -36 -36 -73 -35 -82 5 -32 402 -340 576 -448 91 -56 102 -66 102 -92 l0
-28 135 0 135 0 0 30 c0 21 5 30 16 30 9 0 68 13 132 29 361 91 1001 348 1648
660 158 77 189 89 250 94 86 7 267 70 372 129 84 47 197 151 207 189 5 18 36
40 133 92 492 261 812 449 836 489 14 24 -44 137 -94 182 -34 31 -40 42 -40
76 0 25 -11 63 -30 100 -27 53 -34 60 -72 70 -24 6 -59 15 -78 21 -70 18 -103
11 -229 -51 -66 -33 -146 -67 -176 -75 -48 -15 -373 -84 -1234 -263 -158 -32
-218 -48 -200 -53 44 -13 191 -9 429 11 129 11 252 20 273 20 l37 0 0 -53 0
-54 -415 -204 -415 -204 0 -48 0 -48 -97 -45 c-197 -93 -432 -198 -616 -275
-157 -66 -198 -79 -243 -79 l-54 0 0 53 c1 42 5 55 23 68 12 9 74 54 137 99
179 130 518 360 530 360 5 0 15 8 22 18 7 9 39 31 72 47 32 17 63 38 69 48 7
9 19 17 29 17 9 0 19 9 23 19 3 10 17 22 30 25 l25 6 0 385 c0 212 -3 385 -7
384 -5 0 -23 -8 -40 -16z"/>
</g>
</svg>
